<svg xmlns="http://www.w3.org/2000/svg" viewBox="0 0 107.9 123.6"><title>c</title><g id="Layer_2" data-name="Layer 2"><g id="Layer_1-2" data-name="Layer 1"><path d="M105.4,28.5,57.1.7A5.93,5.93,0,0,0,54,0a7.09,7.09,0,0,0-3.1.7L2.9,28.6A6.87,6.87,0,0,0,0,34V89.7a5.87,5.87,0,0,0,1,3.5l106.8-62A7.08,7.08,0,0,0,105.4,28.5Z" style="fill:#659ad3"/><path d="M.7,93.1A5.74,5.74,0,0,0,2.6,95l48.2,27.9a5.93,5.93,0,0,0,3.1.7,7.09,7.09,0,0,0,3.1-.7L105,95a6.87,6.87,0,0,0,2.9-5.4V33.9a5.68,5.68,0,0,0-.6-2.8Z" style="fill:#03599c"/><path d="M75.3,73.9a24.55,24.55,0,1,1,0-24.1l13-7.5a39.49,39.49,0,1,0-.1,39.2Z" style="fill:#fff"/></g></g></svg>