<svg xmlns="http://www.w3.org/2000/svg" viewBox="0 0 380 420"><title>csharp</title><g id="Layer_2" data-name="Layer 2"><g id="Layer_1-2" data-name="Layer 1"><path d="M179,2.86a22.47,22.47,0,0,1,21.93,0L369,97.2a21.19,21.19,0,0,1,11,18.46V304.33a21.22,21.22,0,0,1-11,18.47L201,417.14a22.47,22.47,0,0,1-21.93,0L11,322.8A21.22,21.22,0,0,1,0,304.34V115.67A21.22,21.22,0,0,1,11,97.2Z" style="fill:#003be2"/><path d="M3,314c-2.66-3.56-3-6.94-3-11.49V115A21.07,21.07,0,0,1,10.94,96.6L178.42,2.8a24.1,24.1,0,0,1,22.71.08C234.56,21.6,334.84,77.47,368.27,96.19a20.93,20.93,0,0,1,6.6,5.76Z" style="fill:#003be2"/><path d="M190,70A140,140,0,1,0,330,210,140,140,0,0,0,190,70Zm0,210a70,70,0,1,1,70-70A70.08,70.08,0,0,1,190,280Z" style="fill:#fff"/><path d="M374.85,102.05c5.16,4.83,5.06,12.11,5.06,17.84,0,38-.32,145.89.09,183.84A21.72,21.72,0,0,1,376.77,315L185.93,210Z" style="fill:#487cef"/><path d="M290,170h10v80H290Zm30,0h10v80H320Z" style="fill:#fff"/><path d="M270,220h80v10H270Zm0-30h80v10H270Z" style="fill:#fff"/></g></g></svg>