<svg xmlns="http://www.w3.org/2000/svg" viewBox="0 0 88.97 125.59"><title>css3</title><g id="Layer_2" data-name="Layer 2"><g id="Layer_1-2" data-name="Layer 1"><path d="M69.72,4.65H62.33L70,13v4H54.2V12.3h7.68L54.2,4V0H69.72Zm-18.66,0H43.68L51.36,13v4H35.54V12.3h7.68L35.54,4V0H51.06Zm-18.47.19h-8v7.27h8v4.84H19V0H32.59Z" style="fill:#131313"/><path d="M8.1,115.5,0,24.69H89l-8.1,90.8-36.43,10.1Z" style="fill:#1572b6"/><path d="M44.48,117.86l29.44-8.16,6.93-77.59H44.49Z" style="fill:#33a9dc"/><path d="M44.48,65H59.22l1-11.4H44.48V42.47H72.41l-.27,3L69.41,76.15H44.48Z" style="fill:#fff"/><path d="M44.55,93.94h0L32.1,90.6l-.79-8.88H20.12l1.56,17.49,22.81,6.33h.05V93.94Z" style="fill:#ebebeb"/><path d="M58.28,75.68,56.93,90.6,44.51,93.95v11.59l22.83-6.33.17-1.88,1.94-21.65H58.28Z" style="fill:#fff"/><path d="M44.52,42.47V53.61H17.62l-.22-2.5-.51-5.65-.27-3Zm0,22.54V76.15H32.24L32,73.65,31.51,68l-.27-3Z" style="fill:#ebebeb"/></g></g></svg>