<svg xmlns="http://www.w3.org/2000/svg" viewBox="0 0 78.71 111.11"><title>html5</title><g id="Layer_2" data-name="Layer 2"><g id="Layer_1-2" data-name="Layer 1"><path d="M78.71,21.83l-7.17,80.33-32.23,8.94L7.16,102.18,0,21.83Z" style="fill:#e44d26"/><path d="M39.36,104.27l26-7.22L71.53,28.4H39.36Z" style="fill:#f16529"/><path d="M25.42,48.11H39.36V38.26H14.65l.24,2.64,2.42,27.15H39.36V58.2h-13ZM27.64,73H17.74l1.38,15.47,20.19,5.6h0V83.8h0l-11-3L27.64,73Z" style="fill:#ebebeb"/><path d="M7.32,0h5V4.95h4.58V0h5V15h-5V10H12.33v5h-5ZM28.5,5H24.1V0H37.92V5H33.51V15h-5V5h0ZM40.12,0h5.22l3.21,5.26L51.76,0H57V15H52V7.56l-3.44,5.33h-.09L45,7.56V15h-4.9ZM59.48,0h5V10h7v5H59.48Z"/><path d="M39.32,68.06H51.46L50.31,80.84l-11,3V94.06l20.2-5.6.15-1.66L62,60.85l.24-2.65H39.32Zm0-20v0h23.8l.2-2.21.45-5L64,38.25H39.32v9.83Z" style="fill:#fff"/></g></g></svg>