<svg xmlns="http://www.w3.org/2000/svg" viewBox="0 0 291.32 291.32"><title>iconpinterest</title><g id="Layer_2" data-name="Layer 2"><g id="Layer_1-2" data-name="Layer 1"><path d="M145.66,0A145.66,145.66,0,1,1,0,145.66,145.66,145.66,0,0,1,145.66,0Z" style="fill:#c8232c"/><path d="M150.07,63.78c-51.33,0-77.19,35.63-77.19,65.34,0,18,7,34,22.12,40,2.47,1,4.7,0,5.41-2.61l2.2-8.4c.73-2.61.45-3.54-1.55-5.83-4.36-5-7.13-11.4-7.13-20.51,0-26.43,20.42-50.09,53.18-50.09,29,0,44.95,17.16,44.95,40.07,0,30.15-13.78,55.61-34.25,55.61-11.29,0-19.76-9-17-20.16,3.24-13.24,9.54-27.54,9.54-37.11,0-8.55-4.74-15.7-14.57-15.7-11.55,0-20.83,11.57-20.83,27.07A39.12,39.12,0,0,0,118.35,148l-13.9,57c-4.12,16.91-.61,37.64-.32,39.74a1.45,1.45,0,0,0,2.57.6c1.07-1.35,14.82-17.8,19.5-34.24,1.33-4.65,7.6-28.75,7.6-28.75,3.75,6.95,14.72,13,26.38,13,34.71,0,58.27-30.65,58.27-71.67C218.44,92.68,191.32,63.78,150.07,63.78Z" style="fill:#fff"/></g></g></svg>