<svg xmlns="http://www.w3.org/2000/svg" viewBox="0 0 80.21 80.21"><title>iconfb</title><g id="Layer_2" data-name="Layer 2"><g id="Design"><circle cx="40.11" cy="40.11" r="40.11" style="fill:#3c5a99"/><path d="M39.29,42.38l-.08-.58a7.88,7.88,0,0,1,.51-3.48l.57.49c1.26,1,.2,2.39.48,3.56l-.48,0Z" style="fill:#a2b1ce"/><path d="M41,39.43l-.79,2c-.35-.69-2.26-1.38,0-2.07Z" style="fill:#e8ecf3"/><path d="M39.34,38.32h1l.49,1.53c-.54.36,0,.68,0,1l-.53.53a1,1,0,0,0-.51,1C38.81,41.14,39.52,39.68,39.34,38.32Z" style="fill:#a7b5d1"/><path d="M33.46,40.56V65.13a.64.64,0,0,0,.64.64h9.12a.64.64,0,0,0,.64-.64v-25h6.61a.64.64,0,0,0,.64-.59l.64-7.52a.64.64,0,0,0-.64-.69H43.86V26a2.26,2.26,0,0,1,2.26-2.26h5.1a.64.64,0,0,0,.64-.64V15.6a.64.64,0,0,0-.64-.64H42.61a9.15,9.15,0,0,0-9.15,9.15v7.25H28.9a.64.64,0,0,0-.64.64v7.52a.64.64,0,0,0,.64.64h4.56Z" style="fill:#fff;fill-rule:evenodd"/></g></g></svg>