<svg xmlns="http://www.w3.org/2000/svg" viewBox="0 0 512 512"><title>iconlinkedin</title><g id="Layer_2" data-name="Layer 2"><g id="Layer_1-2" data-name="Layer 1"><circle cx="256" cy="256" r="256" style="fill:#4376b1"/><path d="M511,233.63,394.73,117.2c-71,9.24-145.27,7.86-216.3,9.51-29.31,0-58.61,13.79-53.44,46.54,10.34,65.51,15.52,129.29,3.45,196.52-1.9,8.55-5.9,17.09-11.12,25.06L233.48,511c7.42.65,14.93,1,22.52,1,141.38,0,256-114.62,256-256C512,248.46,511.65,241,511,233.63Z" style="fill:#369"/><path d="M376,109.47H136A26.51,26.51,0,0,0,109.47,136V376A26.51,26.51,0,0,0,136,402.53H376A26.51,26.51,0,0,0,402.53,376V136A26.51,26.51,0,0,0,376,109.47Zm-175.87,253a7.71,7.71,0,0,1-7.72,7.72H159.6a7.72,7.72,0,0,1-7.72-7.72V224.86a7.72,7.72,0,0,1,7.72-7.72h32.84a7.72,7.72,0,0,1,7.72,7.72V362.52ZM176,204.16a31.2,31.2,0,1,1,31.2-31.2,31.2,31.2,0,0,1-31.2,31.2Zm195.75,159a7.09,7.09,0,0,1-7.09,7.1H329.44a7.1,7.1,0,0,1-7.09-7.1V298.57c0-9.63,2.83-42.21-25.17-42.21-21.72,0-26.12,22.3-27,32.3v74.48a7.09,7.09,0,0,1-7.09,7.1H229a7.1,7.1,0,0,1-7.1-7.1V224.23a7.1,7.1,0,0,1,7.1-7.1h34.08a7.09,7.09,0,0,1,7.09,7.1v12c8.05-12.09,20-21.42,45.5-21.42,56.42,0,56.11,52.72,56.11,81.69v66.63h0Z" style="fill:#fff"/><path d="M376,109.47H255.43V217.14h7.65a7.09,7.09,0,0,1,7.09,7.1v12c8.05-12.09,20-21.42,45.5-21.42,56.42,0,56.11,52.72,56.11,81.69v66.63a7.09,7.09,0,0,1-7.09,7.1H329.44a7.1,7.1,0,0,1-7.09-7.1V298.56c0-9.63,2.83-42.21-25.17-42.21-21.72,0-26.12,22.3-27,32.3v74.48a7.09,7.09,0,0,1-7.09,7.1h-7.65v32.3H376A26.51,26.51,0,0,0,402.54,376V136A26.52,26.52,0,0,0,376,109.47Z" style="fill:#d1d1d1"/></g></g></svg>