<svg xmlns="http://www.w3.org/2000/svg" xmlns:xlink="http://www.w3.org/1999/xlink" viewBox="0 0 1263.52 1114"><defs><linearGradient id="linear-gradient" x1="490.62" y1="544.38" x2="165.7" y2="1107.16" gradientUnits="userSpaceOnUse"><stop offset="0" stop-color="#56bfec"/><stop offset="0.02" stop-color="#56bfec"/><stop offset="0.27" stop-color="#bedfee"/><stop offset="0.64" stop-color="#c9e2ee"/><stop offset="0.85" stop-color="#75c8ee"/><stop offset="1" stop-color="#75c8ee"/></linearGradient><linearGradient id="linear-gradient-2" x1="1170.11" y1="825.73" x2="1006.5" y2="1109.11" xlink:href="#linear-gradient"/><linearGradient id="linear-gradient-3" x1="442.95" y1="591.43" x2="858.99" y2="95.61" gradientUnits="userSpaceOnUse"><stop offset="0" stop-color="#56bfec"/><stop offset="0.47" stop-color="#0099e7"/><stop offset="0.99" stop-color="#005d8d"/></linearGradient><linearGradient id="linear-gradient-4" x1="324.9" y1="512.52" x2="455.63" y2="356.72" xlink:href="#linear-gradient-3"/><linearGradient id="linear-gradient-5" x1="909.55" y1="754.08" x2="1186.11" y2="424.49" xlink:href="#linear-gradient-3"/></defs><title>iconDH</title><g id="Layer_2" data-name="Layer 2"><g id="Layer_1-2" data-name="Layer 1"><path d="M0,615.84V864.91C0,1114,249.08,1114,249.08,1114h248c248,0,248-248,248-248V753.13c-81.66-32-166.15-71.88-248-121.51V833.09c0,31-24.14,32.92-24.14,32.92H273.22c-21.67,0-24.14-19.75-24.14-19.75V655.34c0-37,26.34-37.31,26.34-37.31H475.11C372.84,553.38,275.58,473,194.24,373.27,19.21,409.45,0,615.84,0,615.84Z" style="fill:url(#linear-gradient)"/><path d="M1262.55,879.1c-10.6-.86-109.48-9.51-248.25-42.35.31,130.07.68,277.25.68,277.25S1252,1067.81,1262.55,879.1Z" style="fill:url(#linear-gradient-2)"/><path d="M745,0h-248V636.84c81.83,49.64,166.32,89.53,248,121.52Z" style="fill:url(#linear-gradient-3)"/><path d="M475.11,623.24h0V373.07h-226a270,270,0,0,0-54.84,5.41C275.58,478.25,372.84,558.6,475.11,623.24Z" style="fill:url(#linear-gradient-4)"/><path d="M1263,871.23V621.05s24.41-248-248-248H767v248H986.44s27.43-4.11,27.43,27.43c0,13.28.2,98.86.42,193.49,138.77,32.85,237.66,41.49,248.25,42.35C1262.79,880,1263,875.67,1263,871.23Z" style="fill:url(#linear-gradient-5)"/></g></g></svg>