<svg xmlns="http://www.w3.org/2000/svg" viewBox="0 0 300 400.01"><title>java</title><g id="Layer_2" data-name="Layer 2"><g id="Layer_1-2" data-name="Layer 1"><path d="M146.5,209c-10-16.09-17.22-29.43-27.25-54.55C102.29,112,222.4,73.67,173.7,0c21.11,50.89-75.77,82.35-84.77,124.73C80.7,163.71,146.45,209,146.5,209Z" style="fill:#f44336"/><path d="M148.78,132.71c-1.92,25.16,22.29,38.57,23,56.95.56,15-14.47,27.43-14.47,27.43s27.28-5.36,35.79-28.18c9.45-25.34-18.34-42.69-15.48-63,2.67-19.38,60.31-55.43,60.31-55.43S153.11,76.12,148.78,132.71Z" style="fill:#f44336"/><path d="M230.84,210.56c17.54-3.94,32.33,7.23,32.33,20.1,0,29-40.21,56.43-40.21,56.43s62.25-7.42,62.25-55.05C285.21,200.54,254.64,192.67,230.84,210.56ZM201.29,234s19.41-13.83,24.58-19C178.24,225,69.49,226.41,69.49,217.63c0-8.09,35.07-16.38,35.07-16.38s-77.73-1.12-77.73,21.81C26.83,247,128.58,248.67,201.29,234Z" style="fill:#1565c0"/><path d="M189.35,255.72c-45.09,15-128.14,10.2-103.54-9.93-12,0-29.74,9.63-29.74,18.89,0,18.57,89.82,32.91,156.3,5.72Z" style="fill:#1565c0"/><path d="M96.86,287.4c-16.36,0-26.95,10.54-26.95,18.22,0,23.91,97.6,26.32,136.27,2.05L181.6,291.35C152.71,304,80.14,305.8,96.86,287.4Z" style="fill:#1565c0"/><path d="M272.81,326.33c0-9.36-10.55-13.77-14.33-15.88C280.76,364.18,35.31,360,35.31,328.29c0-7.21,18.07-14.27,34.77-10.93L55.88,309C22.6,303.75,0,318.38,0,330.18,0,385.21,272.81,382.56,272.81,326.33Z" style="fill:#1565c0"/><path d="M300,346.05c-41.46,41-146.59,55.87-252.31,30.57C153.41,421.65,299.5,396.29,300,346.05Z" style="fill:#1565c0"/></g></g></svg>