<svg xmlns="http://www.w3.org/2000/svg" viewBox="0 0 360 360"><title>js</title><g id="Layer_2" data-name="Layer 2"><g id="Layer_1-2" data-name="Layer 1"><path d="M0,360V0H360V360Z" style="fill:#ffd600"/><path d="M235.38,269.47c6.92,11.24,14.44,22,30.37,22,13.38,0,20.4-6.65,20.4-15.85,0-11-7.26-14.92-22-21.33l-8.07-3.44c-23.29-9.88-38.78-22.26-38.78-48.41,0-24.1,18.45-42.44,47.28-42.44,20.53,0,35.28,7.11,45.92,25.73l-25.14,16.07C279.85,191.93,273.87,188,264.6,188c-9.46,0-15.45,6-15.45,13.77,0,9.64,6,13.54,19.85,19.51l8.07,3.44C304.52,236.45,320,248.39,320,275.23c0,28.92-22.84,44.77-53.5,44.77-30,0-47-15.05-56.5-33.68Zm-115.86.82c5.06,9.06,12.75,16,23.81,16,10.58,0,16.67-4.18,16.67-20.43V160h33.33V271c0,33.67-19.53,49-48.05,49-25.77,0-44.37-17.46-51.95-33.68Z" style="fill:#000001"/></g></g></svg>