<svg xmlns="http://www.w3.org/2000/svg" viewBox="0 0 1943 1956.14"><defs><style>.cls-1{fill:#db9534;}.cls-2{fill:#b3b3b3;}.cls-2,.cls-3,.cls-4{fill-rule:evenodd;}.cls-3{fill:#353137;}.cls-4{fill:#878787;}</style></defs><g id="Capa_2" data-name="Capa 2"><g id="Capa_1-2" data-name="Capa 1"><g id="Group-10"><path id="Combined-Shape" class="cls-1" d="M1264,1128.17A86.66,86.66,0,1,1,1386.2,1251L1235.81,1401.2c-138.75,138.54-365,140.55-506.09,4.66-.81-.78-63.64-62.38-270.88-265.6C321,1005.07,307.22,788.74,437,649.82l241.91-259c128.77-137.89,366.14-153,513.37-33.89L1412,534.59a86.68,86.68,0,0,1-108.78,135L1083.47,491.89c-77-62.27-211.69-53.72-278.13,17.42l-241.91,259C500.26,836,507.18,944.92,580,1016.29l269.61,264.37c73.35,70.64,192,69.59,264-2.32Z"/><path id="Path-2" class="cls-2" d="M898.61,977.89a86.74,86.74,0,0,1,0-173.48h638.57a86.74,86.74,0,0,1,0,173.48Z"/><path id="Stroke-3" class="cls-3" d="M1018.2,27.48A86.65,86.65,0,1,1,1144.65,146L563.43,768.34C500.27,836,507.18,944.92,580,1016.29L848.39,1279.5a86.67,86.67,0,0,1-121.14,124L458.83,1140.26C321,1005.06,307.23,788.73,437,649.82Z"/></g><path id="LeetCode" class="cls-4" d="M42.14,1634.77v245.07a32.91,32.91,0,0,0,10,24.14,32.91,32.91,0,0,0,24.14,10h66.28a21,21,0,0,1,20.95,21v.45a19.45,19.45,0,0,1-6.15,14.58,20.17,20.17,0,0,1-14.8,6.15H76.3q-31.66,0-54-22.32T0,1879.84V1634.77A20.15,20.15,0,0,1,6.15,1620,20.31,20.31,0,0,1,20.73,1614h.68A20.31,20.31,0,0,1,36,1620,20.15,20.15,0,0,1,42.14,1634.77Zm264,115.25q-34.17,0-58.31,24.14-23.91,24.13-23.91,58.3a79.07,79.07,0,0,0,.91,12.08L369,1779.4Q344.37,1750,306.11,1750Zm113,30.06a20.55,20.55,0,0,1-10.25,27.56Q376.94,1822,325,1845.45l-83.59,37.8q24.6,31.44,64.69,31.44a82.29,82.29,0,0,0,77.66-55.35q5-14.11,20.05-14.12a20,20,0,0,1,17.08,8.88q6.15,8.65,2.5,18.91a119.77,119.77,0,0,1-44.64,59.67,121.38,121.38,0,0,1-72.65,23.46q-51.48,0-87.92-36.44t-36.44-87.92q0-51.48,36.44-87.91t87.92-36.45a124.54,124.54,0,0,1,113,72.66ZM583.29,1750q-34.17,0-58.31,24.14-23.91,24.13-23.91,58.3a79.07,79.07,0,0,0,.91,12.08l144.17-65.14Q621.55,1750,583.29,1750Zm113,30.06A20.55,20.55,0,0,1,686,1807.64q-31.89,14.34-83.82,37.81l-83.58,37.8q24.6,31.44,64.68,31.44A82.29,82.29,0,0,0,661,1859.34q5-14.11,20-14.12a20,20,0,0,1,17.08,8.88q6.15,8.65,2.51,18.91A119.89,119.89,0,0,1,656,1932.68a121.43,121.43,0,0,1-72.66,23.46q-51.48,0-87.91-36.44t-36.45-87.92q0-51.48,36.45-87.91t87.91-36.45a124.54,124.54,0,0,1,113,72.66Zm68.1-166a20.6,20.6,0,0,1,20.72,20.73v72.65h41a19.92,19.92,0,0,1,14.58,6.15,20.19,20.19,0,0,1,6.15,14.81v.45a19.45,19.45,0,0,1-6.15,14.58,19.92,19.92,0,0,1-14.58,6.15h-41v141.89a21.76,21.76,0,0,0,6.61,16,22,22,0,0,0,16.17,6.6h18.22a19.92,19.92,0,0,1,14.58,6.15,20.19,20.19,0,0,1,6.15,14.81v.45a19.45,19.45,0,0,1-6.15,14.58,19.92,19.92,0,0,1-14.58,6.15H807.86a63.09,63.09,0,0,1-46-18.91q-18.9-19.12-18.9-45.78V1634.77A20.62,20.62,0,0,1,763.68,1614Zm279.69,0a175.09,175.09,0,0,1,42.59,5.24q15.7,4.1,15.71,20v.69a20.85,20.85,0,0,1-26,20,129.51,129.51,0,0,0-32.34-4.1q-53.29,0-91.11,37.81t-37.81,91.33q0,53.52,37.81,91.33,37.81,37.59,91.11,37.58a136.63,136.63,0,0,0,32.34-3.87,19.68,19.68,0,0,1,17.76,3.64,19.48,19.48,0,0,1,8.2,16.4v.46q0,16.17-15.71,20.27a175.09,175.09,0,0,1-42.59,5.24q-70.84,0-120.94-50.11T873,1785.09q0-70.83,50.11-120.94T1044.05,1614Zm212.27,136q-34.17,0-58.31,24.14-23.91,24.13-23.91,58.3,0,33.94,23.91,58.08,24.15,24.15,58.31,24.15t58.08-24.15q24.13-24.13,24.14-58.08,0-34.15-24.14-58.3Q1290.47,1750,1256.32,1750Zm0-42.6q51.47,0,87.91,36.45t36.44,87.91q0,51.48-36.44,87.92t-87.91,36.44q-51.48,0-87.92-36.44T1132,1831.78q0-51.48,36.44-87.91T1256.32,1707.42Zm280.6,42.6q-34.17,0-58.31,24.14-23.91,24.13-23.91,58.3,0,33.94,23.91,58.08,24.15,24.15,58.31,24.15t58.08-24.15q24.13-24.13,24.14-58.08,0-34.15-24.14-58.3Q1571.07,1750,1536.92,1750Zm103.63-136a20.62,20.62,0,0,1,20.72,20.73v197.69q-.23,51.26-36.67,87.46t-87.68,36.22q-51.48,0-87.92-36.44t-36.44-87.92q0-51.48,36.44-87.91t87.92-36.45q46.92,0,82.22,31.21V1634.77a20.62,20.62,0,0,1,20.72-20.73Zm183.8,136q-34.17,0-58.31,24.14-23.91,24.13-23.91,58.3a79.07,79.07,0,0,0,.91,12.08l144.17-65.14Q1862.61,1750,1824.35,1750Zm113,30.06a20.55,20.55,0,0,1-10.25,27.56q-31.89,14.34-83.82,37.81l-83.59,37.8q24.6,31.44,64.69,31.44a82.29,82.29,0,0,0,77.66-55.35q5-14.11,20-14.12a20,20,0,0,1,17.08,8.88q6.15,8.65,2.5,18.91a119.77,119.77,0,0,1-44.64,59.67,121.38,121.38,0,0,1-72.65,23.46q-51.48,0-87.92-36.44T1700,1831.78q0-51.48,36.44-87.91t87.92-36.45a124.54,124.54,0,0,1,113,72.66Z"/></g></g></svg>