<svg xmlns="http://www.w3.org/2000/svg" viewBox="0 0 1754.07 1191.24"><title>mysql</title><g id="Layer_2" data-name="Layer 2"><g id="Layer_1-2" data-name="Layer 1"><path d="M421.71,1085.23H354q-3.59-171.36-19.76-322.28h-.6l-103,322.28H179.09L76.65,762.94h-.59q-11.4,144.94-14.37,322.28H0Q6,869.57,29.94,680.85h83.89L211.46,978h.6l98.23-297.13h80.26q26.37,221.06,31.15,404.38M715.23,786.88q-41.34,224.31-109,326-52.73,78.31-115.62,78.34-16.77,0-41.33-10.07v-36.06a199,199,0,0,0,28.15,1.8q29.39,0,47.34-16.19,21.54-19.74,21.54-44.31,0-16.83-16.77-68.9L455.24,786.87h66.49L575,959.37q18,58.76,15,82.09,43.73-116.79,61.12-254.62h64.1v0Z" style="fill:#5d87a1"/><path d="M1616.16,1085.23H1423.9V680.85h64.67v354.6h127.58ZM1373.57,1095l-74.34-36.69a138.16,138.16,0,0,0,18.57-18.06q47.4-55.68,47.36-164.71,0-200.67-157.53-200.71-77.26,0-120.42,50.94-47.36,55.72-47.33,164.15,0,106.62,41.92,156.3,38.35,44.94,115.65,45,28.84,0,52.94-7.1l96.78,56.34Zm-240.82-90.69q-24.56-39.51-24.56-127,0-152.73,92.86-152.78,48.55,0,71.27,36.52,24.52,39.57,24.57,125.8,0,154-92.85,154-48.57,0-71.29-36.57M1011.7,973.14q0,51.44-37.72,84.46t-101.19,32.95q-59.32,0-115-37.77l17.38-34.72Q823.07,1042,862,1042q36.55,0,57.22-16.11c13.8-10.75,22-25.83,22-44.9,0-24-16.75-44.56-47.49-61.76-28.34-15.56-85-48.1-85-48.1-30.72-22.39-46.1-46.43-46.1-86q0-49.16,34.42-79.36t89-30.28q56.3,0,102.39,30L972.8,740.16Q933.37,723.41,895,723.41c-20.73,0-36.74,5-47.87,15S829,761.11,829,776.76c0,23.91,17.11,44.7,48.68,62.24,28.72,15.59,86.82,48.69,86.82,48.69C996,910,1011.7,933.86,1011.7,973.14" style="fill:#f8981d"/><path d="M1697.35,545.41c-39.11-1-69.38,2.94-94.79,13.69-7.34,2.93-19,2.93-20,12.2,4,3.92,4.42,10.25,7.86,15.67,5.86,9.77,16.07,22.91,25.4,29.77,10.24,7.85,20.52,15.62,31.3,22.46,19,11.76,40.54,18.6,59.06,30.32,10.79,6.81,21.51,15.63,32.32,23,5.31,3.91,8.71,10.25,15.6,12.7v-1.49c-3.45-4.39-4.43-10.75-7.82-15.64l-14.67-14.15a232.54,232.54,0,0,0-50.8-49.32c-15.64-10.78-49.86-25.42-56.2-43.45l-1-1c10.75-1,23.5-4.9,33.72-7.9,16.62-4.38,31.78-3.39,48.84-7.77,7.85-2,15.63-4.42,23.5-6.84v-4.41c-8.84-8.8-15.15-20.49-24.44-28.81-24.88-21.49-52.29-42.51-80.62-60.1-15.17-9.8-34.68-16.1-50.84-24.43-5.82-2.94-15.63-4.39-19.06-9.29-8.76-10.75-13.69-24.9-20-37.63-14.12-26.85-27.84-56.64-40-85-8.82-19-14.18-38.06-24.93-55.68-50.35-83-105-133.35-189.08-182.72-18.06-10.28-39.55-14.66-62.5-20l-36.66-1.94c-7.82-3.43-15.66-12.73-22.48-17.12-27.88-17.58-99.67-55.68-120.18-5.38-13.21,31.79,19.54,63.05,30.79,79.18,8.3,11.2,19.07,23.93,24.88,36.65,3.44,8.3,4.41,17.12,7.85,25.9,7.82,21.5,15.13,45.42,25.41,65.48,5.36,10.23,11.21,21,18.06,30.24,3.92,5.41,10.75,7.81,12.24,16.64-6.81,9.73-7.35,24.42-11.26,36.63-17.58,55.21-10.71,123.59,14.2,164.16,7.79,12.22,26.39,39.11,51.27,28.8,22-8.79,17.15-36.63,23.48-61.05,1.45-5.9.5-9.77,3.43-13.64v1c6.81,13.67,13.69,26.84,20,40.54,15.16,23.92,41.55,48.85,63.54,65.42,11.71,8.84,21,24,35.64,29.36v-1.46h-1c-3-4.38-7.31-6.34-11.21-9.74-8.82-8.8-18.57-19.55-25.41-29.31-20.48-27.37-38.61-57.68-54.69-88.95-7.87-15.17-14.66-31.76-21-46.9-3-5.85-3-14.66-7.86-17.6-7.35,10.74-18.06,20-23.42,33.19-9.3,21-10.27,46.93-13.72,73.84l-1.92.94c-15.56-3.91-21-20-26.89-33.68-14.64-34.71-17.09-90.43-4.39-130.47,3.4-10.24,18.11-42.49,12.24-52.25-2.94-9.35-12.73-14.67-18.09-22-6.3-9.26-13.21-21-17.6-31.26-11.72-27.35-17.62-57.65-30.24-85-5.9-12.74-16.14-25.92-24.43-37.65-9.31-13.18-19.55-22.47-26.92-38.1-2.43-5.38-5.85-14.16-1.94-20,1-3.92,2.94-5.39,6.84-6.37,6.33-5.35,24.42,1.45,30.76,4.39,18.11,7.32,33.26,14.16,48.38,24.42,6.84,4.9,14.18,14.19,23,16.64H1179c15.6,3.4,33.19.94,47.88,5.36,25.88,8.32,49.33,20.52,70.36,33.69,64,40.58,116.77,98.25,152.39,167.12,5.85,11.22,8.33,21.5,13.67,33.21,10.29,24,23,48.39,33.23,71.84,10.27,23,20,46.39,34.71,65.46,7.31,10.25,36.69,15.63,49.86,21,9.74,4.38,24.91,8.28,33.7,13.65,16.62,10.24,33.18,22,48.81,33.26,7.78,5.86,32.24,18.07,33.69,27.86M1199,120.82a76.12,76.12,0,0,0-20,2.46v1h.94c3.94,7.81,10.78,13.22,15.66,20,3.94,7.83,7.35,15.6,11.21,23.42l.94-1c6.89-4.88,10.32-12.7,10.32-24.43-3-3.45-3.43-6.83-5.9-10.25-2.88-4.89-9.22-7.32-13.17-11.25" style="fill:#5d87a1"/><path d="M1743.88,1085.16H1754v-49.54h-15.18l-12.39,33.81L1713,1035.62h-14.62v49.54h9.56v-37.69h.54l14.1,37.69h7.28l14-37.69v37.69Zm-81.55,0H1673V1044h14v-8.41h-39.34V1044h14.58l0,41.15Z" style="fill:#f8981d"/></g></g></svg>