<svg xmlns="http://www.w3.org/2000/svg" viewBox="0 0 512 512"><defs><style>.cls-1{fill:#848484;}</style></defs><g id="Capa_2" data-name="Capa 2"><g id="Capa_1-2" data-name="Capa 1"><g id="Capa_2-2" data-name="Capa 2"><g id="Capa_2-2-2" data-name="Capa 2-2"><path class="cls-1" d="M256,0C114.62,0,0,114.62,0,256S114.62,512,256,512,512,397.39,512,256,397.37,0,256,0Zm71.71,451c-1.47-20-3.12-44.85-3.22-54.89-.64-7.72-1.47-27.33-20.09-39.86,73.93-6.19,109.12-47,111.65-101,2.11-30.76-10.12-57.8-31.83-79.62a437,437,0,0,0-2.2-63.17c-16.68-4.8-55.56,15.73-66.42,24.52-22.91-8.9-79-12-113.07,0-24.16-17-51.67-27.49-66.66-24.56-13.84,30.67-4.94,59.66-2.24,63.12-17.82,16.28-42.69,36.33-35.93,78.33,10.83,61.59,54.15,94.8,123.91,102.93-14.87,3-17.39,14.14-18.64,19-46.84,19.33-60.23-11.94-66.16-20.08-19.66-24.34-37.31-17.28-38.4-16.9a3.1,3.1,0,0,0-1.74,2.66c1,5.25,11.7,10.58,12.22,11,14.52,10.81,19.89,30.35,23.2,35.92,20.82,34.22,69.2,20,69.67,20.32,0,3-.34,28.17-.63,47.77C112.91,432.34,48,351.85,48,256,48,141.12,141.12,48,256,48s208,93.12,208,208C464,345.65,407.2,421.79,327.71,451Z"/></g></g></g></g></svg>