<svg xmlns="http://www.w3.org/2000/svg" viewBox="0 0 480 264"><title>php</title><g id="Layer_2" data-name="Layer 2"><g id="Layer_1-2" data-name="Layer 1"><path d="M240,261C109.32,261,3,203.13,3,132S109.32,3,240,3,477,60.87,477,132,370.68,261,240,261Z" style="fill:#dcd5f2"/><path d="M240,6C369,6,474,62.53,474,132S369,258,240,258,6,201.47,6,132,111,6,240,6m0-6C107.45,0,0,59.1,0,132S107.45,264,240,264s240-59.1,240-132S372.55,0,240,0Z" style="fill:#8b75a1"/><path d="M150.67,96c10.35,0,19.28,3.73,24.5,10.24,4.49,5.6,5.89,13,4,21.46-5,22.75-14.81,28.3-49.76,28.3H104.58l10.5-60h35.59m0-12H105L84,204H96l6.34-36h27.09c35.18,0,54.32-5.43,61.48-37.7,6.15-27.72-14.29-46.3-40.23-46.3Zm216,12c10.35,0,19.28,3.73,24.5,10.24,4.49,5.6,5.89,13,4,21.46-5,22.75-14.81,28.3-49.76,28.3H320.58l10.5-60h35.59m0-12H321L300,204h12l6.34-36h27.09c35.18,0,54.32-5.43,61.48-37.7,6.15-27.72-14.29-46.3-40.23-46.3Z" style="fill:#36404d"/><path d="M294.43,91.27C289.16,86.09,279.86,84,266,84H232.78L240,48H227.4L204,168h11.94l14.33-72H266c14,0,18.56,2.4,20,3.82,2.06,2,2.54,7.36,1.3,14.18l-10.6,54h12.64l9.76-51.78C301.19,104.77,299.62,96.37,294.43,91.27Z" style="fill:#36404d"/></g></g></svg>