<svg xmlns="http://www.w3.org/2000/svg" xmlns:xlink="http://www.w3.org/1999/xlink" viewBox="0 0 2499.72 2021"><defs><linearGradient id="linear-gradient" x1="-6241.6" y1="-888.96" x2="-5400.9" y2="-1385.72" gradientTransform="translate(1848.43 1347.75) scale(0.12)" gradientUnits="userSpaceOnUse"><stop offset="0" stop-color="#909ca9"/><stop offset="1" stop-color="#ededee"/></linearGradient><linearGradient id="linear-gradient-2" x1="-6222.73" y1="-10251.45" x2="-5546.28" y2="-10251.45" gradientTransform="translate(1848.43 1347.75) scale(0.12)" gradientUnits="userSpaceOnUse"><stop offset="0" stop-color="#939fab"/><stop offset="1" stop-color="#dcdee1"/></linearGradient><radialGradient id="radial-gradient" cx="-9634.2" cy="-4851.88" r="898.12" gradientTransform="matrix(-0.11, -0.02, 0.03, -0.23, 584.41, -772.96)" gradientUnits="userSpaceOnUse"><stop offset="0" stop-color="#ee352c"/><stop offset="1" stop-color="#a91d22"/></radialGradient></defs><title>sqlserver</title><g id="Layer_2" data-name="Layer 2"><g id="Layer_1-2" data-name="Layer 1"><path d="M1694.74,643.52l-276.06,90.14-240.17,106-67.19,17.74c-17.11,16.28-35.05,32.76-54.46,49.45-21.28,18.36-41.11,35.06-56.34,47.16-16.9,13.36-41.94,38.39-54.67,54.25-19,23.79-34,49-40.48,68.44-11.48,35.06-5.84,70.53,16.28,103.29,28.38,41.73,84.93,84.3,150.86,113.3,33.6,14.82,90.14,33.8,132.71,44.44,70.73,17.95,207.62,37.35,282.94,40.28,15.23.63,35.68.63,36.51,0,1.67-1,13.36-23.37,26.92-51.12,46.32-94.53,79.71-183.21,97.86-258.95,10.85-45.9,19.4-107,25-179.44,1.46-20.24,2.09-88.06.84-111-1.88-37.56-5.22-68-10.43-97.86-.84-4.38-1-8.35-.63-8.56.83-.63,3.34-1.46,37.35-11.27l-6.88-16.27h0Zm-63,36.94c2.5,0,9.18,64.06,10.85,104.54.42,8.55.21,14.19-.21,14.19-1.67,0-35.26-19.82-59.26-34.84-20.87-13.15-60.51-39.44-66.77-44.45-2.09-1.46-1.88-1.67,15.23-7.51C1560.57,702.57,1629.43,680.45,1631.73,680.45Zm-140.64,46.32c1.88,0,6.67,2.71,18.15,9.81,43,26.92,101.41,59.47,126.45,70.32,7.72,3.34,8.55,2.08-9.18,14.19-38,25.87-85.35,51.33-143.35,77-10.22,4.59-18.78,8.14-19,8.14-.42,0,.83-5.21,2.5-11.47,14-52,21.91-104.54,22.33-146.69.21-20.87.21-20.87,2.09-21.49-.42.21-.21.21,0,.21Zm-29,11.06c1.25,1.25.42,48-1.25,60.72a531,531,0,0,1-19.19,90.77c-2.3,7.71-4.39,14.19-4.8,14.6-.84,1-29.43-26.92-38.81-37.77-16.28-18.78-29-37.56-38.39-55.92-4.8-9.39-12.31-27.75-11.69-28.38,3.34-2.29,113.3-44.86,114.14-44Zm-136.47,53.63a.78.78,0,0,1,.63.21,39,39,0,0,1,3.13,7.51c6.67,18.15,21.7,44.86,34.64,62,14.19,18.78,32.76,38.81,48.2,52,5,4.17,9.6,8.14,10.22,8.76,1.25,1.25,1.67,1-32.34,14-39.43,15-82.42,30-131.66,45.9q-17.65,5.69-35.26,11.48c-1.88.63-1.25-.42,4.17-9,24.41-38.19,61.55-113.09,82.42-166.09,3.55-9.18,7.09-18.36,7.72-20.45.84-2.92,1.88-4,4.59-5.43a20.23,20.23,0,0,1,3.55-.83Zm-41.73,17.32c.62.42-10,22.74-20.45,43.19-20.24,39.44-42.36,78.25-72,125.41-5,8.14-9.8,15.65-10.43,16.48-1,1.46-1.46,1-4.8-5.42-7.09-14-12.94-31.93-16.07-48.41-3.13-16.28-2.5-44.65,1-62.18,2.71-12.94,2.5-12.73,8.76-15.86,26.71-13.56,113.1-54,113.93-53.21Zm359.94,14.61v8.76c0,46.53-5,110.38-12.31,156.91-1.25,8.14-2.3,14.81-2.5,15,0,0-6.05-1.67-13.14-3.76a538.46,538.46,0,0,1-96-41.1c-20.24-11.06-49.66-29.22-48.83-30.05.2-.21,9-4.8,19.19-10.22,40.9-21.28,80.13-44.23,114.14-67,12.73-8.56,31.92-22.33,36.1-26.08l3.34-2.5Zm-517.48,61.76c.83,0,.63,1.67-.63,9.18-.84,5.43-1.88,15.44-2.29,22.33-1.67,30.47,3.34,53,18.36,83.88,4.17,8.56,7.51,15.65,7.3,15.86-1.46,1.25-139.59,41.74-183,53.63-12.94,3.55-24.2,6.68-25,6.88-1.46.42-1.67.21-1-3.34,4.8-30.67,28.17-70.73,60.72-104.54,21.7-22.53,39-35.68,68.65-52.58,21.28-12.1,54-30.25,56.55-31.09,0-.21.21-.21.42-.21Zm325.51,58.22c.21-.21,5.22,2.51,11.27,6.05,44.65,25.87,106.83,49.87,159.83,62.18l4.8,1-6.68,3.75c-27.75,15.44-118.94,53.42-212.2,88.27-13.57,5-26.92,10-29.43,11.06s-4.8,1.67-4.8,1.46,3.76-7.51,8.55-16.48c26.08-48.83,52.38-108.29,65.73-149.61,1.67-4,2.71-7.51,2.93-7.72Zm-33.18,10.85c.21.21-1.46,4.59-3.55,9.6-18.15,44-41.94,92-72.41,145.85-7.72,13.77-14.19,24.83-14.4,24.83s-6.47-3.76-14-8.35c-44.24-27.13-83.47-60.51-109.13-92.85l-3.76-4.59,19-5.22c68-18.57,125.82-38.6,183.21-63.22C1411.8,956.93,1418.48,954.22,1418.69,954.22Zm206.16,72h0c.21,4.8-10.43,47.78-19.2,78.87-7.3,26.08-13.57,46.53-25,82.63-5,15.86-9.39,29-9.6,29a13.81,13.81,0,0,1-2.71-.62c-62-11.27-117.48-26.92-169.64-47.78-14.61-5.84-35.47-15.23-36.72-16.28-.42-.42,12.1-6.26,28-13.15,94.94-41.52,193.43-88.68,227.23-108.92,4-2.5,7.09-3.76,7.72-3.76Zm-476,16.28c.42.42-26.08,38.6-63.23,90.56-12.94,18.15-28,39.44-33.59,47.36s-14.19,20.45-19,28l-8.77,13.56-9.39-7.93c-11.06-9.18-30.25-28.8-38.81-39.65-17.95-22.32-30-45.9-34.85-67.39-2.3-10-2.3-15-.21-15.65,3.13-.83,58.84-14,111-26.09,29-6.67,62.6-14.6,74.7-17.52s21.91-5.22,22.12-5.22Zm26.71,10.22,6.67,7.51c30.05,33.59,60.72,58.43,97.86,80.13,6.68,3.76,11.69,7.09,11.27,7.31-1.46,1-129,46.32-188,66.77-33.18,11.68-60.51,21.07-60.72,21.07a35.88,35.88,0,0,1-4.18-2.71l-3.75-2.71,6.05-8.76c19.61-28.38,44.24-59.47,97.86-124.15l36.93-44.44Zm166.51,119.14c.2-.21,9.39,3.13,20.65,7.31,27.13,10.22,48.62,16.69,77.42,24,35.47,9,86.8,17.74,117.06,20.24,4.59.42,7.09.84,6.26,1.46-1.46.84-32.13,11.06-54.67,18.15-35.89,11.27-145.44,43.61-234.74,69.27-16.48,4.8-30.67,8.76-31.51,9-2.08.42-9-1.46-9-2.3,0-.41,5-6.88,11.06-14A1238.56,1238.56,0,0,0,1329.38,1191c6.88-10.44,12.73-19,12.73-19.2Zm-36.73,1c.21.21-14.61,24-40.48,64.89-11.06,17.32-23.37,36.93-27.76,43.82-4.17,6.68-10.43,17.11-14,23l-6.05,10.64-3.13-.84c-7.51-2.09-60.3-20.66-74.28-26.29a516.72,516.72,0,0,1-48.62-22.33c-16.69-9-37.56-22.33-35.89-22.74.42-.21,29-7.93,63.43-17.32,91.39-24.83,142.1-39.23,175.28-49.66,6.05-1.88,11.27-3.34,11.48-3.13Zm259.78,60.93h.21c.84,2.09-33,96-45.28,125.61-2.71,6.68-3.75,8.35-5.21,8.14-3.55-.2-52.58-7.09-82.42-11.47-52-7.93-139.18-23.16-161.08-28.17l-5-1,31.09-7.1c66.77-15,98.91-23.16,131.46-33.18a929.12,929.12,0,0,0,122.9-47.36c6.47-2.92,11.89-5.22,13.35-5.43Z" style="fill:url(#linear-gradient)"/><path d="M1410.13,0c-4.59-.62-78.67,26.09-126.45,45.49-64.48,26.29-114.55,51.33-145.44,73-11.47,8.14-25.87,22.54-28.17,28.17a19.5,19.5,0,0,0-1.25,7.09l28,26.5,66.56,21.28L1361.72,230,1542.84,261l1.88-15.65c-.62,0-1-.21-1.66-.21l-23.79-3.76-4.8-8.55c-24.62-43.4-51.75-97.24-67.61-133.54-12.31-28.17-24-60.72-30.47-84.09-3.55-14.19-4-15-6.26-15.23h0Zm-3.34,10.64h.21c.2.21,1,6.05,1.88,12.93a435.92,435.92,0,0,0,20.24,87.85c7.72,23,7.72,21.7-1.25,19-21.28-5.84-116.64-22.33-185.71-31.92-11.06-1.46-20.45-2.92-20.45-3.13-.83-.83,49.87-27.34,72.2-37.77,28.59-13.15,107-45.91,112.88-47Zm-201.15,93.48,8.14,2.71c44.23,15,155.45,36.31,216.8,41.32,6.88.63,12.73,1.25,12.93,1.25.21.21-5.63,3.34-13.14,6.88-29.63,14.82-62.18,33-84.71,47-6.67,4.17-12.73,7.51-13.56,7.51s-5.22-.84-9.81-1.46l-8.35-1.25-20.86-20.45c-36.72-35.68-65.52-63.22-76.58-73.66Zm-8.34,6.47,29.42,36.73c16.07,20.24,32.34,40.06,35.89,44.44s6.47,7.93,6.26,8.14c-.84.63-42.56-7.51-64.69-12.52-22.74-5.22-32.13-7.72-46.11-12.1l-11.48-3.76v-2.92c.21-14,17.95-34.85,48-56.13l2.71-1.88Zm250,50.08c.84,0,1.88,1.88,4.38,7.51,7.09,15.65,29.22,57.8,34.64,65.94,1.67,2.72,4.59,2.92-24.83-1.88C1390.73,220.77,1368,217,1368,216.6a21.65,21.65,0,0,1,4.8-3.13,407.34,407.34,0,0,0,63.64-44c4.8-4,9.18-7.72,10-8.35.21-.42.63-.62.84-.42Z" style="fill:url(#linear-gradient-2)"/><path d="M1111.54,143.78s-4.59,7.31-.21,18.16c2.72,6.67,10.64,14.81,19.61,23.16,0,0,92.85,90.56,104.12,103.5,51.33,59.26,73.66,117.68,75.74,198.23,1.25,51.75-8.56,97.24-33,150-43.4,94.73-135,199.27-276.27,315.29l20.66-6.89c13.35-10,31.51-20.66,74.07-44,98.28-53.84,208.87-103.29,344.5-154.2C1636.1,673.57,1957.24,587.6,2140,559.64l19-2.92-2.92-4.59c-16.69-25.87-28.17-41.94-41.94-59-40.06-49.66-88.67-89.93-148.15-123.32-81.79-45.69-187.59-81.38-321.54-107.88-25.25-5-80.75-14.61-125.82-21.49-95.57-14.81-157.33-25-225.35-36.72-24.41-4.18-60.93-10.43-85.13-15.65-12.52-2.72-36.51-8.35-55.29-14.82-15-5.85-36.73-11.69-41.32-29.42Zm53.84,52.17c.21-.21,3.54,1,7.93,2.5,7.93,2.71,18.15,5.84,30.26,9.18q13.74,3.78,27.54,7.3c12.52,3.13,23,6.05,23.16,6.05,1.46,1.46,22.54,68.85,29.63,94.73,2.71,9.81,4.8,18.15,4.59,18.15-.21.21-2.51-3.34-5.22-8.14-24.41-43-63-86.59-107.67-121.65a89,89,0,0,1-10.22-8.13ZM1268,224.32a82,82,0,0,1,11.27,1.88c35.47,7.93,99.12,20,139.8,26.92,6.89,1,12.31,2.3,12.31,2.71s-2.51,1.88-5.64,3.55c-6.88,3.55-34.64,20-43.82,26.29-23.16,15.44-44,32.13-59.05,47.16-6.05,6.05-11.27,11.06-11.27,11.06s-1.25-3.55-2.3-7.93c-7.51-29-23.16-72-37.35-102.24a89.55,89.55,0,0,1-4.18-9.6c0,.42,0,.21.21.21Zm180.7,34.43c1.25.42,3.34,7.51,7.51,23.16a341.6,341.6,0,0,1,10,95.57c-.42,8.76-.84,16.9-1.25,17.95l-.62,2.08L1453.53,394c-22.33-7.09-58.63-17.74-89.72-26.5-17.74-4.8-32.13-9.18-32.13-9.6,0-1.25,25.87-27.13,36.93-36.93,21.07-18.57,78.24-62.81,80.12-62.18Zm14.4,2.08c.63-.62,86.39,14.19,125.41,21.7,29,5.63,71.15,14.4,73.66,15.44,1.25.42-3.13,2.92-17.11,9.18-55.08,24.83-96,47.16-136.67,74.28-10.64,7.09-19.62,12.94-19.82,12.94s-.42-6-.42-13.35c0-39.64-7.93-79.71-22.54-113.51C1464.17,264.18,1462.92,261,1463.13,260.84Zm221.81,43.82c.63.63-2.09,17.53-4.59,27.54-7.51,31.09-27.75,77.21-52.58,120.61-4.39,7.72-8.35,14-8.77,14.19s-6-2.92-12.52-6.68c-24.2-14.19-51.75-27.54-81.79-40.06-8.34-3.55-15.65-6.47-15.86-6.88-1.46-1.25,65.73-45.7,101.2-67,28.17-17.11,74.07-42.57,74.91-41.73Zm15.86,2.5c1.88,0,39.86,10.43,59.68,16.28,49,14.61,105.37,35.26,142.1,52l15.23,6.89-10.64,2.5c-89.72,20.66-166.51,44.45-240.59,74.49-6.05,2.5-11.48,4.59-11.89,4.59s1.67-4.8,4.38-10.64c22.33-47.36,36.72-96.82,40.27-139,.21-4,.83-7.09,1.46-7.09ZM1322.7,394c.62-.63,29.63,6.26,45.28,10.64,23.79,6.68,74.28,23.58,74.28,24.83,0,.21-5.63,5-12.31,10.85-27.33,22.74-53.63,46.74-85.14,77.2-9.39,9-17.32,16.28-17.73,16.28s-.62-1.25-.42-2.92c4.8-35.06,3.76-80.13-2.92-125.82C1323.12,399.18,1322.49,394.17,1322.7,394Zm609.5.63c.41.41-13.36,22.12-22.12,34.43-12.52,17.94-30.89,41.74-72.41,93.9-21.9,27.54-46.53,58.63-54.67,69.07-8.35,10.43-15.23,19.19-15.44,19.19a72,72,0,0,1-5.84-8.34c-23.37-35.06-51.33-65.73-84.51-93.27-6.26-5.22-13.14-10.85-15.44-12.52a23.26,23.26,0,0,1-4.18-3.55c0-.62,35.47-15.86,62.39-26.71,47.16-19.2,111.42-42.15,159.62-57,25.25-7.93,52.17-15.65,52.59-15.23Zm16.07,4.17c.83-.21,5.84,2.3,11.89,5.84,50.71,29,100.36,66.36,139.59,104.75,11.06,10.85,38.39,39.23,38,39.44,0,0-9.6.83-20.86,1.67-87.85,6.68-200.31,25.25-308.4,51.33-7.3,1.67-13.77,3.13-14.19,3.13s7.72-8.14,17.95-17.94c63.43-61.14,92.44-99.74,126.65-168.6,4.8-10.22,9-19,9.39-19.61h0Zm-464.69,47.58c2.92.62,30,13.36,50.5,23.58,18.78,9.39,47,24.41,48.41,25.66.21.21-9.81,5.42-22.12,11.48-39.23,19.61-72.82,38.18-107.88,59.47-10,6.05-18.36,11.06-18.57,11.06-.84,0-.63-.84,5-11.06,18.78-34.22,33.8-75.12,42.36-115,.83-3.13,1.67-5.21,2.29-5.21Zm-27.13,5c.63.63-6.47,26.29-10.85,40.27a513.77,513.77,0,0,1-36.93,84.72c-3.34,5.84-8.35,14.4-11.06,19.19l-5.22,8.35-11.69-11.26c-13.56-13.15-24.62-21.28-38.81-28.59-5.64-2.92-10-5.42-10-5.84,0-1.67,35.68-34,63-57.38,19.61-16.9,60.93-50.08,61.55-49.45Zm165.89,68.23,10.23,6.67a793.37,793.37,0,0,1,72,53.21c11.89,9.8,34.84,30.47,39.44,35.47l2.5,2.72-16.9,4.8c-95.57,26.5-169.43,50.08-255.61,81.79-9.6,3.55-17.74,6.47-18.36,6.47-1.25,0-2.29,1,19.2-18.78,55.09-50.7,103.91-106.62,140.22-161.08l7.31-11.26Zm-43.61,10.85c.42.42-28.17,40.69-45.28,63.43C1513,621,1476.69,666.47,1451.65,696.1c-10.43,12.31-19.4,22.54-19.82,22.75-.63.21-.84-2.92-.84-7.72,0-25.25-6.47-52.17-17.74-75.12-4.8-9.6-5.63-11.89-4.59-12.94,4-3.55,64.68-38.19,103.07-58.84,25.87-13.77,66.35-34.22,67-33.8ZM1315,595.11c.63,0,5.43,2.5,10.85,5.42a229.16,229.16,0,0,1,35.89,24.21c.42.42-5,4.8-12.1,10-19.82,14.19-49.87,36.93-67.39,50.92-18.37,14.61-19,15-16.9,11.89,13.77-21.08,20.66-33,28-48.2a388.41,388.41,0,0,0,17.52-43.61c1.67-6.05,3.76-10.64,4.17-10.64Zm70.32,55.08c1-.21,2.3,1.67,7.93,10,11.89,17.73,21.08,41.52,23.37,60.72l.41,4.18-28.58,11.06c-51.13,19.82-98.28,39.44-130.21,54-9,4.18-24.62,11.69-34.84,16.7-10.23,5.21-18.57,9.18-18.57,9s6.47-5,14.4-10.85c62.39-45.28,116.43-94.94,156.91-144.6,4.38-5.22,8.35-10,8.76-10.23h.42ZM1353,658.13c.84.83-23,27.75-39.23,44.23-40.27,41.11-80.13,73.24-129.58,104.54-6.26,4-11.89,7.51-12.52,7.93-1.46.83.42-1.25,22.12-24.83,13.77-14.82,24.2-27.33,36.1-42.77,7.93-10.22,9.39-11.68,20.87-19.83C1281.39,705.28,1352.12,657.29,1353,658.13Z" style="fill:url(#radial-gradient)"/><path d="M449.39,1522.12c-3.85,0-7.7.37-11.51.37-77.75,4.14-130.18,38.36-160.84,105.18-26.22,60.43-23.36,139.42.29,200.22,27.51,59.41,71.95,90.76,146.13,102.6,15.7,2.57,26.22,11.19,56.62,46.68L517.49,2021h67.84l-45.11-45.48c-24.94-24.93-45.11-46.65-45.11-48.55s9.54-6.09,21.09-9.61c38.07-11.52,69.68-40.93,91.79-86,17.9-36.19,20.47-47.38,23-92.41,6.71-134-64-217.83-181.63-216.87v0Zm59.48,350.51c-33,16-80.93,19.18-112.21,7.7-32.34-11.88-63.66-45.47-77.75-83.5-15.66-41.58-13.42-118.3,4.47-152.85,28.79-55,66.85-80.31,122.48-80.31,82.51,0,129.45,50.54,135.57,145.51,4.84,79.29-21.71,138.76-72.54,163.41Zm1171.94-236c-28.46,0-50.24,11.52-64.91,34.21l-11.51,18v-46.72h-49.25v280.17h49.22v-89.55c0-81.89,1-91.46,12.46-113.87,15.77-30.73,42.9-46.05,69.13-38.72l17.6,5.13v-48.55h-22.74v-.07ZM1391.48,1634a141.75,141.75,0,0,0-30.07,3.52c-65.9,17.23-103,80.31-100.78,145.22,0,54.35,10.56,81.52,36.78,110,53.72,44.08,102.31,47.6,167.88,23.95,11.19-4.77,23.36-10.27,23.36-10.27V1862.4l-23.36,12.1c-53.06,23.1-93,23.1-125.05-4.11-20.42-20.79-29.41-45.73-33.55-74.18h198.57v-37.78c0-77-46.35-125.64-113.83-124.39h0Zm-80.31,122.85s7.34-48,34.54-66.89a74.26,74.26,0,0,1,42.83-13.71,68.52,68.52,0,0,1,41.59,14c24.94,19.18,29.12,66.19,29.12,66.19H1311.17v.36h0ZM123.86,1706.36c-53.39-32.35-77.08-55.67-74.18-83.17C58,1547.1,152,1557.62,204.06,1586.41l.37-51.19s-28.79-12.47-70-13.13c-63.29-1-104.22,19.8-123.4,62-28.17,62.34-3.23,109.35,86.91,161.8,50.6,29.44,73,55,73,82.88,0,57.58-69.42,77.67-141,41.55C15.1,1863,2.63,1856.9,2,1856.9-.6,1873.22.73,1912.27.73,1912.27s22,9.24,55,15.62c81.85,16.32,156.33-22.07,163.37-84.42,6.12-58.53-15-89.22-95.24-137.15v0Zm1992.83-73a149.11,149.11,0,0,0-30.44,3.56c-65.82,17.24-102.9,80.31-100.37,145.22,0,54.27,10.53,81.19,36.74,109.64,53.73,44.12,102.32,47.67,168.21,24,11.15-4.77,23.29-10.19,23.29-10.19v-44.15l-23.32,12.17c-53.17,23-93.15,23-125-4.18-20.54-20.76-29.45-45.4-33.59-74.19h198.25v-37.77c0-76.64-46.36-125.31-113.83-124l.11-.08Zm-80.31,122.85s7.41-48,34.58-67.18a73.87,73.87,0,0,1,42.8-13.75,68.52,68.52,0,0,1,41.59,14.08c24.94,19.18,29.12,66.52,29.12,66.52h-148l0,.33ZM1133.68,1707c-53.39-32.27-77-55.67-74.15-83.17,8.29-76.13,102.32-65.57,154.39-36.78l.37-51.19s-28.79-12.47-70-13.06c-63.29-1-104.22,19.8-123.43,62-28.13,62.34-2.86,109.35,87,161.8,50.54,29.41,72.9,54.64,72.9,82.51,0,57.58-69.38,78-141,41.55-14.67-7.33-27.13-13.39-27.87-13.39-2.57,16.32-1.24,55.38-1.24,55.38s21.74,8.91,54.64,15.62c81.92,16.36,156.44-22,163.45-84.34,6.09-58.23-15-88.93-95-136.89V1707Zm1272.39-71c-28.46,0-50.49,11.55-64.91,34.25l-11.52,17.89v-46.64h-49.25v280.09h49.21V1832c0-81.85,1-91.46,12.47-113.83,15.77-30.69,42.9-46.06,69.12-38.69l17.6,5.13V1636h-22.73ZM742,1705.37V1526.93H692.38v395.25H901.19v-46.68H742V1705.37ZM1890.28,1761l-40.93,106.49L1810,1760.41l-40-118.67h-50.82c32.93,93.37,68.76,188.34,104.88,280.43,15.66.37,31.35,0,47,0l55.27-138.76,56.29-141.63h-48.59S1912.61,1698,1890.25,1761l0,0ZM856.44,1419.22c8,0,14.67-2.56,20.17-8.06a26.75,26.75,0,0,0,8.29-19.8,26.28,26.28,0,0,0-8.29-19.8,27.58,27.58,0,0,0-19.8-7.7c-8.06,0-14.74,2.57-20.17,8s-8,12.1-8,19.81c0,8.07,2.57,14.74,8,19.8,5.14,5.13,11.81,7.7,19.8,7.7v.07Zm-17.6-45.47c4.77-4.77,10.56-7,18-7a24.42,24.42,0,0,1,24.94,24.57,24.63,24.63,0,0,1-7.33,17.89,24,24,0,0,1-17.61,7c-7.08,0-12.84-2.2-17.6-7a24.63,24.63,0,0,1-7.33-17.89C831.88,1384.31,834.08,1378.52,838.84,1373.75Zm11.84,20.17h3.23c2.28,0,4.51,2.2,6.42,6.38l3.85,8.65h6l-4.77-9.61c-1.94-3.85-3.85-6.08-6.09-6.71,2.82-.66,5.06-1.61,6.67-3.52a8.81,8.81,0,0,0,2.2-6.42,8.19,8.19,0,0,0-2.86-6.75c-2.2-1.83-5.72-2.82-10.27-2.82H844.93V1409h5.13v-15h.62Zm0-16.65h4.48c3.23,0,5.5.66,6.75,1.61s1.54,2.2,1.54,4.47c0,4.14-2.57,6.09-7.33,6.09h-5.5v-12.18h.07ZM30.49,1390.73c0-12.47-.37-21.74-.66-27.21h.29A81.75,81.75,0,0,0,34.27,1378l47.67,106.49h8L137.61,1377a96.9,96.9,0,0,0,4.15-13.46h.37c-1,10.64-1.28,19.88-1.28,27.25v94h16.32V1345.07H136.69l-43.82,97.18c-1.61,3.85-3.85,9.61-6.71,17.24H85.5a112,112,0,0,0-6.38-16.58l-42.83-98.17H14.54v139.72H30.23V1390.8l.26-.07Zm162.42.26H207v87H192.91Zm7-31.91a9.93,9.93,0,0,0,7.33-2.93,10.17,10.17,0,0,0,3.23-7.33,9.22,9.22,0,0,0-3.19-7.33,10.27,10.27,0,0,0-7.41-2.94,10.05,10.05,0,0,0-7.34,2.94,10.31,10.31,0,0,0-3.22,7.33,8.83,8.83,0,0,0,3.22,7.33,10.56,10.56,0,0,0,7.34,2.93h0ZM307.4,1479.92v-15.33c-7.7,5.76-16,8.62-24.57,8.62-10.26,0-18.59-3.52-24.68-10.26s-9.28-16-9.28-27.51c0-12.1,3.23-21.71,9.9-29q9.63-10.56,24.94-10.56a40.92,40.92,0,0,1,23.69,7.71v-16.32c-6.71-3.52-14.37-5.14-23-5.14-16,0-28.46,5.14-37.77,15s-14,23.36-14,39.6c0,14.45,4.14,26.59,12.76,35.87,9,9.53,20.47,14.37,34.54,14.37,10.89-.3,19.8-2.58,27.5-7Zm40.3-46.39c0-11.48,2.57-20.75,7.33-27.14,4.48-5.75,9.9-8.65,16.32-8.65,5.43,0,9.28,1,12.1,3.23v-16.65c-2.2-1-5.39-1.28-9.53-1.28a24.32,24.32,0,0,0-15.4,5.5c-4.77,3.77-8.58,9.53-10.82,16.87h-.37V1385h-16v99.75h16v-51.19Zm91.79,53.17c15,0,27.14-4.84,36.12-14.45S489,1449.88,489,1433.89c0-16.31-4.1-28.78-12.47-38.07s-19.8-13.75-34.84-13.75-27.14,4.48-36.12,13.13c-9.61,9.54-14.67,23-14.67,40.27,0,15,4.11,27.51,12.76,36.78,8.95,9.61,20.79,14.41,35.79,14.41v0Zm-22.74-81.26q9.13-9.63,24-9.61c10.27,0,18,3.19,23.69,9.61,5.76,6.71,8.62,16.28,8.62,29.08,0,12.17-2.57,21.75-8,28.16-5.42,6.71-13.42,10.27-24,10.27-10.27,0-18.22-3.56-24.31-10.27s-8.95-16-8.95-28.16c-.62-12.1,2.57-22,8.95-29.08ZM559,1478a26.21,26.21,0,0,0,9.32-20.47,25,25,0,0,0-7.34-18.22c-3.89-3.85-9.9-7.33-18.59-10.85-7.7-3.22-12.47-6.09-15-8.33a13.69,13.69,0,0,1-4.14-10.27A12.08,12.08,0,0,1,528,1400c3.23-2.56,7.33-3.81,12.84-3.81a37.69,37.69,0,0,1,22.73,7.08v-16a46.86,46.86,0,0,0-21.45-4.76c-10.27,0-18.92,2.83-25.3,8.28a25.56,25.56,0,0,0-9.9,20.76c0,7.33,2.2,13.42,6.38,17.89,3.52,3.81,9.54,7.7,17.9,11.18,8,3.52,13.42,6.71,16.32,9.28a12.19,12.19,0,0,1,4.14,9.54c0,9.31-6.38,14.12-18.85,14.12a39.54,39.54,0,0,1-25.93-9.53v17.23c7,4.19,15.33,6.09,24.57,6.09,11.85-.62,21.12-3.52,27.5-9.28l.08,0Zm76.13-95.93c-15,0-27.14,4.48-36.12,13.13-9.53,9.54-14.67,23-14.67,40.27,0,15,4.15,27.51,12.76,36.78,9,9.61,20.79,14.41,35.83,14.41,15.4,0,27.14-4.84,36.12-14.45s13.46-22.37,13.46-38.36c0-16.32-4.18-28.79-12.47-38.06-8.65-9.28-20.17-13.75-34.84-13.75l-.07,0Zm31,52.44c0,12.17-2.57,21.75-8,28.16-5.43,6.71-13.42,10.27-24,10.27-10.27,0-18.23-3.56-24.32-10.27s-8.95-16-8.95-28.16c0-12.84,3.19-22.73,9.61-29.41,6-6.38,14-9.61,24-9.61s17.86,3.22,23.61,9.61c5.14,7,8,16.61,8,29.41h0Zm43.2,49.91h16v-86.36H748.7v-13.42H725.34v-15.4c0-14,5.42-21,16.65-21a22.07,22.07,0,0,1,10.49,2.57v-14.41c-2.86-1.28-6.71-1.58-11.52-1.58-8.62,0-15.66,2.57-21.42,8-6.71,6.38-10.27,14.67-10.27,25.89V1385H692.41v13.42h16.87v86Zm65.53-27.21c0,19.51,8.62,29.45,26.22,29.45,6.38,0,11.18-1,15-3.3v-13.71a16.7,16.7,0,0,1-10.27,3.23c-5.42,0-9.24-1.29-11.48-4.19s-3.56-7.7-3.56-14.38V1398h25.3v-13.42h-25.3V1355.2c-5.5,1.91-10.89,3.52-16,5.13v24.28H757.65V1398h17.24v59.15Zm1716.22,183.87a27.46,27.46,0,0,0-19.8-7.7c-8.07,0-14.74,2.57-20.17,8.07a26.89,26.89,0,0,0-8,19.8c0,8,2.57,14.67,8,19.8s12.1,7.7,20.17,7.7,14.67-2.57,20.17-8a27,27,0,0,0,8.25-19.8c-.29-8.07-3.19-14.74-8.62-19.88Zm-2.57,37.77c-4.77,4.77-10.56,7-17.6,7a23.89,23.89,0,0,1-17.6-7,24.87,24.87,0,0,1-7.34-18,23.65,23.65,0,0,1,7-17.6c4.77-4.76,10.53-7,17.89-7a23.9,23.9,0,0,1,17.6,7,24.21,24.21,0,0,1,7.33,17.6C2495.91,1668.3,2493.71,1674,2488.58,1678.86Zm-14.38-16.32a13.8,13.8,0,0,0,6.71-3.52,8.83,8.83,0,0,0,2.2-6.45,8.16,8.16,0,0,0-2.86-6.71c-2.2-1.83-5.76-2.83-10.26-2.83h-10.2v35.79h5.14v-15h3.19c2.2,0,4.4,2.2,6.38,6.38l3.81,8.62h6.09l-4.77-9.61c-1.65-4.18-3.56-6.09-5.5-6.71l.06.08Zm-3.52-3.22h-5.5v-12.1h4.51c3.19,0,5.43.58,6.71,1.58s1.58,2.2,1.58,4.47c0,4.14-2.57,6.05-7.33,6.05h0ZM1578.5,1380.5H1583v-35.83h11.84v-4.47h-28.16v4.47h11.85v35.83Zm27.14-26.92a64.54,64.54,0,0,0-.26-8,22.22,22.22,0,0,0,1.25,4.14l13.75,30.73h2.2l13.79-31c.37-1,.66-2.2,1.29-3.85-.29,3.19-.29,5.75-.29,7.7v27.14h4.77V1340.2h-5.76l-12.46,27.8c-.29,1-1.29,2.93-1.91,5.14h-.37a29.21,29.21,0,0,0-1.83-4.77l-12.47-28.16h-6.45v40.34h4.51v-26.92l.26,0Z" style="fill:#231f1f"/></g></g></svg>