<svg xmlns="http://www.w3.org/2000/svg" viewBox="0 0 300.04 360"><title>stackoverflow</title><g id="Layer_2" data-name="Layer 2"><g id="Layer_1-2" data-name="Layer 1"><path d="M0,220H30V360H0Z" style="fill:#607d8b"/><path d="M0,330H260v30H0Z" style="fill:#607d8b"/><path d="M230,220h30V360H230ZM60,280H200v30H60Z" style="fill:#607d8b"/><path d="M60.81,222.6l139.2,15-3.21,29.83-139.2-15Z" style="fill:#a68a6e"/><path d="M278.71,0,300,138.35l-29.66,4.57L249,4.57Z" style="fill:#ef6c00"/><path d="M194.7,22.37,263,144.55l-26.19,14.65L168.51,37Z" style="fill:#ff9800"/><path d="M115,85.51l115,79.82L212.89,190l-115-79.82Z" style="fill:#d38b28"/><path d="M79,152.18l131.73,47.39-10.16,28.24L68.84,180.42Z" style="fill:#c09553"/></g></g></svg>