<svg xmlns="http://www.w3.org/2000/svg" viewBox="0 0 124.23 124.62"><title>wp</title><g id="Layer_2" data-name="Layer 2"><g id="Layer_1-2" data-name="Layer 1"><path d="M62.21,124.62a62.21,62.21,0,0,0,62-62.33C124.23,28.46,96.61.6,63.62,0,29-.61,0,27.51,0,61.61,0,96.69,27.61,124.67,62.21,124.62ZM62.11,3C95,3,121.23,29.75,121.22,63.31c0,31.68-26.92,58.18-59.09,58.19A59.21,59.21,0,0,1,3,61.89C3,29.69,29.77,3,62.11,3ZM37.27,34.29c.54,1.79-1,2.42-2.57,2.54l-5.33.41L48.7,94.81a9.78,9.78,0,0,0,.74-1.22C53,82.91,56.61,72.23,60.09,61.52a5.53,5.53,0,0,0-.19-3.28c-1.84-5.32-4.05-10.52-5.67-15.91-1.1-3.69-2.57-6.07-6.93-5.64-.74.07-1.65-1.52-2.48-2.35,1-.6,2-1.7,3-1.72q13.31-.2,26.62,0c1,0,2,1.15,3,1.76-.88.8-1.64,2-2.67,2.32a28.35,28.35,0,0,1-5.46.58L88.71,94.86c2.93-9.74,5.66-18.68,8.31-27.64,2.37-8,1-15.47-3.32-22.52-1.29-2.12-2.87-4.17-3.6-6.49C89.27,35.59,88.59,32.59,89,30c.75-4.47,4.17-6.69,8.81-7.11C72.45-.72,32.55,7.71,17.84,33.32c5.66-.26,11.06-.6,16.47-.68,1,0,2.72.85,3,1.65Zm10.12,78a9.19,9.19,0,0,0-.22,1.3,54.12,54.12,0,0,0,32.66-.89L63,66.72C57.68,82.33,52.53,97.29,47.39,112.26Zm-8.46-2.08L13.65,40.84C2.25,63.11,10.92,97.1,38.93,110.19Zm76.43-44.56c.8-10.53-2.83-25.12-6-27.13-.35,3.88-.11,8.19-1.22,12.11-2.62,9.26-5.82,18.35-8.9,27.47C95.92,88,92.44,97.86,89,107.75,105.11,98.21,114,84.13,115.36,65.62Z" style="fill:#494949"/></g></g></svg>